# xmcd
#
# Track frame offsets: 
#        150
#        20910
#        41670
#        55413
#
# Disc length: 1014 seconds
#
# Revision: 2
# Processed by: cddbd v1.5.2PL0 Copyright (c) Steve Scherf et al.
# Submitted via: ExactAudioCopy v1.0b3
#
DISCID=3403f404
DTITLE=ムッシュかまやつ - RTB
DYEAR=2002
DGENRE=Anime
TTITLE0=RTB
TTITLE1=RTB-AGL2
TTITLE2=RTB-AGL1
TTITLE3=三柴 理 and Clara - RTB(Original Karaoke)
EXTD=
EXTT0=
EXTT1=
EXTT2=
EXTT3=
PLAYORDER=
